<svg width="232" height="232" viewBox="0 0 232 232" fill="none" xmlns="http://www.w3.org/2000/svg">
<g opacity="0.4" clip-path="url(#clip0_446_6924)">
<path d="M157.849 120.042C154.612 116.802 150.722 114.249 146.373 112.58C148.891 111.206 151.147 109.471 153.174 107.442C158.666 101.944 162.067 94.3185 162.067 85.9077C162.067 74.8134 156.149 65.0935 147.289 59.7918C147.125 59.6936 146.962 59.5954 146.798 59.4973C142.352 56.9446 137.186 55.4719 131.661 55.4719H72.6145V176.594H134.44C152.716 176.594 167.527 161.768 167.527 143.474C167.527 134.343 163.799 126.063 157.849 120.074V120.042ZM139.05 78.6097C140.161 78.6097 141.044 79.4933 141.044 80.606V91.864C141.044 92.9767 140.161 93.8604 139.05 93.8604H137.742C136.663 93.8604 135.748 92.9767 135.748 91.864V80.606C135.748 79.4933 136.63 78.6097 137.742 78.6097H139.05ZM91.4138 89.2786C90.2695 89.2786 89.3541 88.3623 89.3541 87.2168V85.0241C89.3541 83.8787 90.2695 82.9623 91.4138 82.9623H91.7408V66.7299C91.7408 66.3044 92.0677 65.9771 92.4927 65.9771C92.9178 65.9771 93.2447 66.3044 93.2447 66.7299V78.217C96.318 70.3625 103.838 64.7008 112.731 64.3735C113.156 64.3735 113.483 64.7008 113.483 65.1263C113.483 65.519 113.156 65.8462 112.763 65.8462C103.02 66.2062 94.9775 73.5043 93.5063 82.9623H93.6044C94.7487 82.9623 95.6641 83.8787 95.6641 85.0241V87.2168C95.6641 88.3623 94.7487 89.2786 93.6044 89.2786H93.5063C94.9775 98.7366 103.02 106.035 112.763 106.395C113.156 106.395 113.483 106.722 113.483 107.147C113.483 107.573 113.156 107.9 112.731 107.9C103.87 107.606 96.318 101.944 93.2447 94.0567V105.544C93.2447 105.937 92.9178 106.297 92.4927 106.297C92.0677 106.297 91.7408 105.969 91.7408 105.544V89.3113H91.4138V89.2786ZM97.3642 87.2495H115.052C115.575 89.2132 117.439 90.5877 119.564 90.424C121.754 90.2604 123.52 88.3623 123.52 86.1696C123.52 83.7478 121.591 81.8169 119.204 81.8169C117.21 81.8169 115.542 83.1587 115.052 84.9914H97.3642C106.813 82.7332 119.27 75.1406 119.27 75.1406L131.366 78.1842C132.053 78.3151 132.543 78.9369 132.543 79.6569V92.6495C132.543 93.3694 132.053 93.9585 131.366 94.1222L119.27 97.1658C119.27 97.1658 106.813 89.5731 97.3642 87.2823V87.2495ZM80.5593 118.275H134.44C148.302 118.275 159.582 129.565 159.582 143.409C159.582 157.252 148.302 168.576 134.44 168.576H80.592V118.275H80.5593Z" fill="white"/>
<path d="M94.16 87.2495V85.0568C94.16 84.7623 93.8985 84.5005 93.5715 84.5005H91.4137C91.0867 84.5005 90.8252 84.7623 90.8252 85.0568V87.2495C90.8252 87.5441 91.0867 87.8059 91.4137 87.8059H93.5715C93.8985 87.8059 94.16 87.5441 94.16 87.2495Z" fill="white"/>
<path d="M96.3506 154.568C96.6122 154.274 96.743 153.881 96.743 153.423C96.743 152.409 95.8929 151.558 94.8794 151.558H92.1003V157.841H95.2063C96.2198 157.841 97.0699 156.99 97.0699 155.976C97.0699 155.419 96.7756 154.863 96.3506 154.536V154.568ZM93.7678 152.932H94.5524C94.8467 152.932 95.1082 153.194 95.1082 153.488C95.1082 153.783 94.8467 154.045 94.5524 154.045H93.7678V152.965V152.932ZM94.8794 156.499H93.7678V155.419H94.8794C95.1736 155.419 95.4352 155.681 95.4352 155.976C95.4352 156.27 95.1736 156.532 94.8794 156.532V156.499Z" fill="white"/>
<path d="M102.105 153.816H100.111V151.558H98.4431V157.841H100.111V155.452H102.105V157.841H103.772V151.558H102.105V153.816Z" fill="white"/>
<path d="M108.709 155.354C108.709 155.812 108.349 156.172 107.892 156.172C107.434 156.172 107.074 155.812 107.074 155.354V151.558H105.407V155.354C105.407 156.728 106.519 157.841 107.892 157.841C109.265 157.841 110.377 156.728 110.377 155.354V151.558H108.709V155.354Z" fill="white"/>
<path d="M113.646 151.59H112.011V157.874H113.646V151.59Z" fill="white"/>
<path d="M117.896 153.685L116.687 151.59H114.79L117.079 155.583V157.907H118.714V155.583L121.002 151.59H119.106L117.896 153.685Z" fill="white"/>
<path d="M124.304 151.59L121.362 157.874H122.997L123.389 157.056H125.972L126.364 157.874H128.031L125.056 151.59H124.304ZM124.043 155.681L124.697 154.307L125.318 155.681H124.043Z" fill="white"/>
<path d="M134.538 151.59H132.87V154.568L129.895 151.59H129.208V157.874H130.843V154.896L133.818 157.874H134.505V151.59H134.538Z" fill="white"/>
<path d="M96.3506 145.209C96.6122 144.914 96.743 144.521 96.743 144.063C96.743 143.049 95.8929 142.198 94.8794 142.198H92.1003V148.481H95.2063C96.2198 148.481 97.0699 147.63 97.0699 146.649C97.0699 146.06 96.7756 145.536 96.3506 145.209ZM93.7678 143.572H94.5524C94.8467 143.572 95.1082 143.834 95.1082 144.129C95.1082 144.423 94.8467 144.685 94.5524 144.685H93.7678V143.605V143.572ZM94.8794 147.139H93.7678V146.06H94.8794C95.1736 146.06 95.4352 146.321 95.4352 146.616C95.4352 146.91 95.1736 147.172 94.8794 147.172V147.139Z" fill="white"/>
<path d="M100.601 142.198L97.6584 148.481H99.2932L99.6855 147.663H102.268L102.661 148.481H104.328L101.353 142.198H100.601ZM100.339 146.289L100.993 144.914L101.614 146.289H100.339Z" fill="white"/>
<path d="M106.845 147.041C106.584 147.041 106.388 146.845 106.388 146.55H104.917C104.917 147.663 105.767 148.514 106.845 148.514C107.924 148.514 108.774 147.663 108.774 146.583C108.774 146.125 108.611 145.7 108.349 145.372C107.99 144.914 107.434 144.62 106.845 144.62C106.584 144.62 106.388 144.423 106.388 144.161C106.388 143.9 106.584 143.67 106.845 143.67C107.107 143.67 107.336 143.9 107.336 144.161H108.807C108.807 143.081 107.957 142.23 106.878 142.23C105.799 142.23 104.949 143.081 104.949 144.161C104.949 145.241 105.799 146.092 106.878 146.092C107.14 146.092 107.369 146.321 107.369 146.583C107.369 146.845 107.14 147.041 106.878 147.041H106.845Z" fill="white"/>
<path d="M113.45 148.514H115.117V142.23H113.45V144.489H111.455V142.23H109.788V148.514H111.455V146.125H113.45V148.514Z" fill="white"/>
<path d="M119.694 142.198H118.943L116 148.481H117.667L118.027 147.663H120.61L121.002 148.481H122.67L119.694 142.198ZM118.681 146.289L119.335 144.914L119.989 146.289H118.714H118.681Z" fill="white"/>
<path d="M128.555 144.521C128.555 143.245 127.509 142.198 126.233 142.198H123.585V148.481H125.253V146.812H126.266L127.247 148.481H129.143L127.803 146.19C128.261 145.765 128.555 145.176 128.555 144.489V144.521ZM126.266 145.405H125.253V143.605H126.266C126.757 143.605 127.182 143.998 127.182 144.521C127.182 145.045 126.789 145.405 126.266 145.405Z" fill="white"/>
<path d="M147.321 59.53H146.831C146.994 59.6281 147.158 59.7263 147.321 59.8245V59.53Z" fill="white"/>
<path d="M126.952 8.57441C127.443 9.22895 127.672 10.0144 127.606 10.8653C127.541 12.0434 127.083 12.9271 126.266 13.5816C125.448 14.2361 124.271 14.498 122.8 14.3998L117.209 14.0725L118.027 0L123.52 0.327268C124.925 0.392721 125.972 0.785442 126.691 1.4727C127.41 2.15997 127.737 3.04359 127.672 4.12357C127.606 5.00719 127.345 5.72718 126.854 6.25081C126.364 6.77444 125.743 7.10171 124.958 7.26534C125.808 7.49443 126.462 7.91988 126.952 8.60714V8.57441ZM124.5 12.0107C124.991 11.6507 125.252 11.1271 125.285 10.4071C125.318 9.68712 125.122 9.13077 124.664 8.70532C124.206 8.27987 123.552 8.05078 122.702 7.98533L119.858 7.8217L119.596 12.3053L122.473 12.4689C123.323 12.5343 124.01 12.3707 124.5 12.0107ZM119.956 6.18536L122.768 6.34899C123.552 6.38172 124.173 6.25081 124.631 5.89082C125.056 5.53082 125.318 5.03992 125.35 4.38539C125.383 3.73085 125.22 3.20722 124.795 2.8145C124.37 2.42178 123.781 2.19269 122.931 2.15997L120.217 1.99633L119.989 6.18536H119.956Z" fill="white"/>
<path d="M137.905 13.3525L132.053 12.2726L130.451 15.0871L128.064 14.6616L135.649 1.93091L138.232 2.38908L140.815 16.9525L138.428 16.527L137.905 13.3198V13.3525ZM137.578 11.5198L136.467 4.6145L133.001 10.669L137.578 11.5198Z" fill="white"/>
<path d="M151.016 18.2943C150.525 18.7525 149.904 19.0797 149.152 19.2106C148.4 19.3415 147.55 19.2761 146.602 18.9815C145.687 18.687 144.935 18.2943 144.281 17.7379C143.627 17.1816 143.234 16.5598 142.973 15.8398C142.711 15.1198 142.679 14.3671 142.842 13.5816L145.163 14.3016C145.033 14.8907 145.163 15.4798 145.458 16.0361C145.752 16.5925 146.275 16.9852 147.027 17.2143C147.681 17.4107 148.269 17.4107 148.727 17.1488C149.185 16.887 149.512 16.4943 149.708 15.938C149.871 15.4471 149.839 15.0216 149.708 14.6289C149.544 14.2362 149.283 13.8762 148.956 13.5816C148.629 13.2871 148.139 12.8944 147.517 12.4689C146.765 11.9453 146.177 11.4544 145.719 11.0289C145.262 10.6035 144.935 10.0799 144.738 9.45806C144.542 8.83625 144.542 8.11626 144.804 7.29809C145.033 6.5781 145.392 5.98902 145.915 5.56357C146.439 5.13812 147.092 4.87631 147.844 4.77813C148.596 4.67995 149.414 4.77813 150.264 5.03994C151.637 5.46539 152.618 6.11993 153.206 7.03628C153.795 7.95263 153.991 8.96715 153.795 10.0471L151.441 9.32715C151.506 8.80352 151.408 8.27989 151.147 7.78899C150.885 7.29809 150.395 6.97082 149.741 6.74173C149.119 6.54537 148.596 6.54537 148.139 6.74173C147.681 6.9381 147.354 7.33082 147.158 7.9199C147.027 8.37807 147.027 8.80352 147.158 9.16351C147.321 9.55624 147.55 9.8835 147.91 10.178C148.237 10.4726 148.727 10.8326 149.316 11.258C150.068 11.7817 150.689 12.2726 151.147 12.7307C151.604 13.1889 151.931 13.7125 152.16 14.3343C152.389 14.9562 152.356 15.7089 152.095 16.5598C151.898 17.2143 151.539 17.7707 151.048 18.2616L151.016 18.2943Z" fill="white"/>
<path d="M168.638 12.567L162.851 25.4287L160.759 24.4796L163.341 18.7197L157.293 16.0034L154.71 21.7633L152.65 20.8142L158.437 7.95258L160.497 8.90165L158.078 14.3016L164.126 17.0179L166.546 11.618L168.638 12.567Z" fill="white"/>
<path d="M173.706 28.3741L168.671 25.2323L166.153 27.2614L164.094 25.9851L175.798 16.9197L178.021 18.2943L175.112 32.8249L173.052 31.5486L173.738 28.3741H173.706ZM174.098 26.5414L175.569 19.7015L170.109 24.0542L174.065 26.5087L174.098 26.5414Z" fill="white"/>
<path d="M181.814 38.2903L182.598 31.7122L181.356 30.6977L177.825 35.0831L176.06 33.6431L184.854 22.6469L188.712 25.756C189.955 26.7705 190.674 27.8177 190.837 28.9632C191.001 30.1086 190.674 31.1559 189.857 32.1704C189.17 33.0213 188.353 33.5449 187.437 33.7086C186.522 33.8722 185.541 33.6758 184.495 33.0867L183.808 39.8612L181.814 38.2576V38.2903ZM182.337 29.4214L184.299 30.9922C185.737 32.1377 186.947 32.0722 187.96 30.8286C188.451 30.2395 188.647 29.6177 188.582 28.9959C188.516 28.3741 188.091 27.785 187.372 27.1959L185.41 25.625L182.37 29.4541L182.337 29.4214Z" fill="white"/>
<path d="M199.044 47.0284C198.913 47.8465 198.553 48.5338 197.932 49.1229C197.049 49.9083 196.101 50.2356 195.088 50.1047C194.074 49.9738 193.028 49.3847 192.047 48.272L188.287 44.1157L198.717 34.6577L202.411 38.7485C203.36 39.7958 203.85 40.8103 203.883 41.7921C203.915 42.7739 203.523 43.6248 202.706 44.3775C202.052 44.9666 201.365 45.2939 200.646 45.3266C199.927 45.3266 199.24 45.1302 198.586 44.7048C199.044 45.4575 199.175 46.2429 199.077 47.0611L199.044 47.0284ZM194.892 47.7484C195.513 47.8465 196.069 47.6502 196.592 47.1593C197.115 46.6684 197.376 46.1447 197.344 45.5229C197.311 44.9011 197.017 44.2793 196.428 43.6248L194.499 41.4975L191.164 44.5084L193.093 46.6356C193.682 47.2902 194.27 47.6502 194.859 47.7156L194.892 47.7484ZM195.742 40.3848L197.638 42.4793C198.161 43.0684 198.717 43.3957 199.273 43.4612C199.829 43.5266 200.352 43.3302 200.842 42.8721C201.332 42.4466 201.561 41.923 201.561 41.3666C201.561 40.8103 201.267 40.2212 200.711 39.5667L198.88 37.5376L195.774 40.3521L195.742 40.3848Z" fill="white"/>
<path d="M214.149 54.13L202.608 62.2136L201.3 60.3481L206.466 56.7155L202.673 51.2828L197.507 54.9155L196.199 53.0501L207.741 44.9666L209.048 46.832L204.21 50.2356L208.002 55.6682L212.841 52.2646L214.149 54.13Z" fill="white"/>
<path d="M217.287 59.5954L209.898 63.4572C208.787 64.0462 208.1 64.7008 207.806 65.4862C207.512 66.2717 207.61 67.0898 208.068 67.9735C208.525 68.8571 209.147 69.3807 209.964 69.5771C210.781 69.7734 211.729 69.5771 212.808 69.0207L220.23 65.159L221.276 67.188L213.855 71.0498C212.154 71.9334 210.618 72.1625 209.277 71.737C207.937 71.3116 206.891 70.3625 206.139 68.9225C205.387 67.4826 205.223 66.108 205.648 64.7662C206.073 63.4244 207.152 62.3117 208.852 61.4281L216.241 57.5663L217.287 59.5954Z" fill="white"/>
<path d="M223.499 72.6861L210.487 78.086L209.604 75.9915L222.617 70.5916L223.499 72.6861Z" fill="white"/>
<path d="M228.142 86.2023L218.17 84.4678L213.299 86.0387L212.612 83.846L217.484 82.2751L224.578 75.0425L225.396 77.5624L220.164 82.6351L227.357 83.7151L228.142 86.1696V86.2023Z" fill="white"/>
<path d="M219.576 99.4239L218.464 93.5658L215.26 93.0749L214.802 90.6859L229.384 93.2058L229.875 95.7912L217.222 103.449L216.764 101.06L219.576 99.4239ZM221.178 98.4748L227.226 94.9731L220.328 93.8931L221.178 98.4748Z" fill="white"/>
<path d="M217.941 116.147L217.81 113.889L227.815 106.493L217.451 107.049L217.32 104.791L231.346 104.038L231.477 106.297L221.44 113.693L231.869 113.136L232 115.395L217.974 116.147H217.941Z" fill="white"/>
<path d="M228.959 142.132L220.884 140.038C219.674 139.711 218.693 139.743 217.974 140.136C217.255 140.529 216.764 141.183 216.503 142.165C216.241 143.114 216.372 143.932 216.797 144.62C217.255 145.307 218.072 145.798 219.282 146.125L227.357 148.22L226.801 150.412L218.726 148.318C216.862 147.827 215.587 146.976 214.868 145.765C214.149 144.554 214.018 143.147 214.41 141.576C214.803 140.005 215.62 138.86 216.83 138.172C218.039 137.485 219.576 137.354 221.44 137.845L229.515 139.94L228.959 142.132Z" fill="white"/>
<path d="M224.807 155.976L211.533 151.263L212.285 149.103L225.559 153.816L224.807 155.976Z" fill="white"/>
<path d="M225.559 166.743L207.119 152.998L208.002 150.969L226.442 164.714L225.592 166.743H225.559Z" fill="white"/>
<path d="M219.184 168.936L211.86 164.91C210.749 164.321 209.8 164.092 209.016 164.288C208.198 164.485 207.577 165.008 207.087 165.892C206.629 166.743 206.531 167.561 206.793 168.346C207.054 169.132 207.741 169.819 208.852 170.408L216.176 174.434L215.097 176.43L207.773 172.405C206.073 171.488 205.06 170.343 204.667 169.001C204.275 167.659 204.471 166.252 205.256 164.812C206.041 163.405 207.087 162.488 208.427 162.096C209.768 161.703 211.272 161.965 212.972 162.914L220.295 166.939L219.216 168.936H219.184Z" fill="white"/>
<path d="M196.788 178.099L202.967 178.394L200.515 172.895L202.052 170.768L205.321 178.524L213.528 178.917L211.926 181.11L205.844 180.815L208.231 186.215L206.694 188.343L203.49 180.684L195.153 180.259L196.755 178.066L196.788 178.099Z" fill="white"/>
<path d="M185.705 194.986C185.378 193.841 185.41 192.662 185.803 191.452C186.195 190.241 186.914 189.128 188.026 188.048L191.393 184.743L201.234 194.822L197.867 198.128C196.755 199.208 195.611 199.928 194.434 200.288C193.224 200.648 192.047 200.648 190.903 200.288C189.759 199.928 188.68 199.273 187.699 198.259C186.718 197.244 186.032 196.164 185.705 194.986ZM187.732 193.055C187.732 194.331 188.255 195.51 189.334 196.655C190.445 197.801 191.622 198.357 192.897 198.357C194.172 198.357 195.382 197.768 196.592 196.59L198.194 195.019L191.197 187.852L189.595 189.422C188.386 190.601 187.764 191.844 187.732 193.088V193.055Z" fill="white"/>
<path d="M186.914 205.426L184.299 202.055L180.212 205.229L179.133 203.855L183.22 200.68L180.539 197.211L175.962 200.746L174.817 199.273L181.193 194.331L189.824 205.491L183.449 210.433L182.337 208.993L186.914 205.459V205.426Z" fill="white"/>
<path d="M166.84 206.539C166.84 205.851 167.003 205.197 167.363 204.51C167.755 203.855 168.376 203.266 169.194 202.742C170.011 202.251 170.829 201.924 171.646 201.826C172.463 201.728 173.248 201.826 173.934 202.088C174.654 202.382 175.242 202.84 175.7 203.462L173.64 204.739C173.248 204.248 172.757 203.953 172.136 203.822C171.515 203.691 170.894 203.822 170.207 204.248C169.619 204.608 169.259 205.066 169.128 205.557C168.998 206.08 169.096 206.571 169.39 207.062C169.652 207.488 169.978 207.782 170.403 207.913C170.796 208.044 171.254 208.077 171.679 208.011C172.136 207.946 172.725 207.848 173.444 207.651C174.327 207.422 175.079 207.291 175.7 207.226C176.321 207.16 176.942 207.259 177.531 207.52C178.152 207.782 178.675 208.273 179.133 208.993C179.525 209.648 179.721 210.302 179.721 210.989C179.721 211.677 179.493 212.331 179.068 212.953C178.642 213.575 178.054 214.131 177.269 214.622C176.06 215.375 174.883 215.702 173.804 215.538C172.725 215.408 171.842 214.884 171.155 214L173.248 212.691C173.608 213.084 174.065 213.346 174.588 213.444C175.144 213.542 175.7 213.444 176.288 213.051C176.844 212.724 177.171 212.298 177.335 211.808C177.498 211.317 177.4 210.826 177.073 210.302C176.812 209.909 176.517 209.615 176.125 209.517C175.733 209.386 175.308 209.353 174.883 209.419C174.458 209.484 173.869 209.582 173.15 209.779C172.234 210.008 171.482 210.139 170.829 210.204C170.207 210.269 169.586 210.171 168.965 209.909C168.344 209.648 167.788 209.157 167.33 208.371C166.971 207.782 166.774 207.16 166.742 206.473L166.84 206.539Z" fill="white"/>
<path d="M168.082 219.662L161.609 207.128L163.636 206.08L170.077 218.615L168.049 219.662H168.082Z" fill="white"/>
<path d="M154.351 224.407C153.01 224.047 151.899 223.295 151.048 222.084L153.272 221.2C153.828 221.789 154.514 222.182 155.331 222.346C156.149 222.509 156.999 222.411 157.882 222.051C158.699 221.724 159.353 221.233 159.843 220.611C160.334 219.957 160.628 219.237 160.726 218.386C160.824 217.535 160.661 216.618 160.301 215.669C159.909 214.655 159.386 213.869 158.732 213.313C158.078 212.757 157.326 212.397 156.508 212.299C155.691 212.2 154.841 212.299 153.926 212.659C152.847 213.084 152.029 213.804 151.539 214.786C151.048 215.768 150.918 216.88 151.245 218.124L156.051 216.226L156.672 217.797L150.1 220.415L149.283 218.386C149.054 217.371 149.054 216.357 149.283 215.342C149.512 214.328 149.97 213.444 150.656 212.626C151.343 211.808 152.258 211.153 153.402 210.728C154.678 210.237 155.92 210.073 157.13 210.237C158.339 210.4 159.386 210.891 160.334 211.709C161.282 212.495 162.001 213.542 162.492 214.851C163.015 216.16 163.211 217.404 163.08 218.615C162.949 219.826 162.524 220.906 161.772 221.855C161.02 222.804 160.007 223.524 158.732 224.047C157.162 224.669 155.724 224.8 154.383 224.44L154.351 224.407Z" fill="white"/>
<path d="M134.407 216.422L136.63 215.898L145.719 224.407L143.3 214.295L145.523 213.771L148.825 227.451L146.602 227.975L137.513 219.433L139.965 229.578L137.742 230.102L134.44 216.422H134.407Z" fill="white"/>
<path d="M131.301 229.153L130.778 224.898L125.645 225.52L125.449 223.786L130.614 223.164L130.091 218.811L124.337 219.498L124.108 217.666L132.118 216.717L133.818 230.724L125.808 231.673L125.579 229.84L131.334 229.153H131.301Z" fill="white"/>
<path d="M114.757 217.927L118.354 223.491H119.956L119.858 217.829H122.146L122.375 231.869L117.406 231.967C115.804 231.967 114.561 231.607 113.744 230.855C112.894 230.069 112.469 229.055 112.436 227.745C112.436 226.633 112.698 225.716 113.319 225.029C113.94 224.309 114.823 223.851 115.967 223.622L112.175 217.96H114.725L114.757 217.927ZM119.989 225.062H117.471C115.64 225.127 114.725 225.946 114.757 227.582C114.757 228.367 114.986 228.956 115.444 229.382C115.902 229.807 116.588 230.004 117.536 230.004H120.054L119.989 225.062Z" fill="white"/>
<path d="M83.8612 215.964L89.5828 217.633L91.479 215.015L93.8003 215.702L84.9401 227.582L82.4227 226.862L81.3438 212.102L83.6651 212.789L83.8612 216.029V215.964ZM83.992 217.829L84.3843 224.8L88.4711 219.138L83.992 217.829Z" fill="white"/>
<path d="M77.355 212.2L72.8432 210.335L73.5297 208.699L80.134 211.415L74.7721 224.44L72.6797 223.589L77.355 212.2Z" fill="white"/>
<path d="M65.6503 204.608L66.108 211.219L67.5466 211.971L70.1948 206.997L72.1892 208.077L65.5522 220.513L61.1712 218.157C59.7653 217.404 58.8499 216.488 58.4902 215.408C58.1306 214.328 58.2614 213.215 58.8499 212.069C59.373 211.088 60.0595 210.433 60.9423 210.106C61.8251 209.779 62.8059 209.811 63.9502 210.171L63.3944 203.364L65.6503 204.575V204.608ZM66.7619 213.411L64.5387 212.233C62.904 211.382 61.727 211.644 60.975 213.084C60.6154 213.771 60.5173 214.393 60.7134 214.982C60.9096 215.571 61.4 216.095 62.2501 216.553L64.4733 217.731L66.7619 213.411Z" fill="white"/>
<path d="M52.4746 213.018L60.0924 201.171L61.9887 202.415L54.3709 214.262L52.4746 213.018Z" fill="white"/>
<path d="M41.5546 203.495C41.1949 202.153 41.293 200.811 41.9142 199.47L43.7778 200.942C43.5489 201.728 43.5816 202.513 43.8432 203.299C44.1047 204.084 44.6278 204.771 45.3798 205.36C46.0664 205.917 46.8184 206.244 47.603 206.342C48.3877 206.44 49.2051 206.342 49.9897 205.982C50.7744 205.622 51.461 205.066 52.1149 204.248C52.7688 203.397 53.1938 202.546 53.3573 201.695C53.5207 200.844 53.4553 200.026 53.1284 199.273C52.8015 198.488 52.2783 197.833 51.5264 197.244C50.6109 196.524 49.5974 196.164 48.4858 196.23C47.3742 196.295 46.3606 196.753 45.4452 197.637L49.4993 200.844L48.4531 202.153L42.895 197.768L44.2355 196.066C44.9875 195.346 45.8702 194.855 46.8511 194.528C47.8319 194.201 48.8454 194.168 49.8917 194.364C50.9379 194.561 51.9514 195.052 52.9322 195.804C54.0112 196.655 54.7631 197.637 55.2208 198.782C55.6786 199.928 55.7767 201.073 55.5478 202.284C55.3189 203.495 54.7631 204.64 53.9131 205.72C53.063 206.8 52.0495 207.619 50.9379 208.109C49.8263 208.6 48.6493 208.764 47.4723 208.6C46.2953 208.437 45.151 207.913 44.072 207.062C42.7643 206.015 41.9142 204.837 41.5546 203.495Z" fill="white"/>
<path d="M28.4114 192.106L38.5793 182.354L40.1487 184.023L35.5714 188.408L40.1487 193.186L44.7259 188.801L46.2952 190.437L36.1273 200.19L34.5579 198.553L38.8082 194.462L34.231 189.684L29.948 193.775L28.3787 192.106H28.4114Z" fill="white"/>
<path d="M20.4665 181.797L21.9378 180.684L24.2918 183.826L34.0674 176.43L35.4406 178.263L25.665 185.659L28.019 188.768L26.5477 189.881L20.4338 181.797H20.4665Z" fill="white"/>
<path d="M25.0112 161.768L21.7091 167.528L22.461 168.936L27.3979 166.252L28.4768 168.248L16.0856 174.925L13.7316 170.539C12.9796 169.132 12.7508 167.856 13.045 166.743C13.3393 165.63 14.0586 164.779 15.2029 164.157C16.1837 163.634 17.1318 163.47 18.0146 163.699C18.93 163.896 19.7474 164.485 20.4667 165.434L23.7688 159.477L24.9785 161.736L25.0112 161.768ZM21.0552 169.721L19.8782 167.496C18.9954 165.892 17.8511 165.466 16.4453 166.219C15.7587 166.579 15.3336 167.07 15.1702 167.659C15.0067 168.248 15.1702 168.968 15.5952 169.819L16.7722 172.045L21.0879 169.721H21.0552Z" fill="white"/>
<path d="M11.0179 160.557L14.9739 158.954L13.0122 154.143L14.6469 153.488L16.6086 158.299L20.6627 156.663L18.4722 151.296L20.205 150.609L23.2456 158.07L10.2005 163.405L7.15991 155.943L8.86002 155.256L11.0506 160.623L11.0179 160.557Z" fill="white"/>
<path d="M15.3335 140.856C15.9874 141.02 16.6086 141.347 17.1317 141.903C17.6548 142.46 18.0798 143.212 18.3414 144.161C18.6029 145.078 18.701 145.961 18.5702 146.78C18.4722 147.598 18.1779 148.318 17.7202 148.907C17.2625 149.529 16.6413 149.954 15.922 150.249L15.2354 147.925C15.7912 147.696 16.2489 147.303 16.5432 146.714C16.8374 146.158 16.8701 145.503 16.674 144.75C16.4778 144.096 16.1509 143.638 15.6931 143.376C15.2354 143.114 14.7123 143.081 14.1565 143.245C13.6661 143.376 13.3064 143.638 13.0776 143.998C12.8487 144.358 12.6852 144.75 12.6199 145.209C12.5545 145.667 12.5218 146.256 12.4891 147.009C12.4891 147.925 12.391 148.71 12.2929 149.299C12.1948 149.921 11.9333 150.478 11.5082 151.001C11.1159 151.525 10.4947 151.885 9.64465 152.147C8.92537 152.343 8.23879 152.376 7.5849 152.147C6.93101 151.95 6.37521 151.558 5.85209 150.969C5.36168 150.379 4.96934 149.659 4.74048 148.809C4.34815 147.434 4.34815 146.223 4.77318 145.241C5.1982 144.227 5.91748 143.507 6.96371 143.081L7.65029 145.438C7.15987 145.667 6.80023 146.027 6.53868 146.55C6.27712 147.074 6.27712 147.63 6.47329 148.318C6.63676 148.939 6.96371 149.365 7.35604 149.659C7.78107 149.921 8.27149 149.987 8.85999 149.823C9.31771 149.692 9.67735 149.463 9.87351 149.103C10.1024 148.776 10.2332 148.383 10.2985 147.925C10.3639 147.5 10.3966 146.878 10.4293 146.158C10.4293 145.209 10.5274 144.456 10.6255 143.834C10.7563 143.212 11.0178 142.623 11.4102 142.1C11.8352 141.576 12.4564 141.183 13.3064 140.921C13.9603 140.725 14.6469 140.692 15.3008 140.856H15.3335Z" fill="white"/>
<path d="M4.08661 137.878L8.2715 137.125L7.35605 132.02L9.08886 131.692L10.0043 136.798L14.2873 136.012L13.2738 130.318L15.1046 129.991L16.5432 137.943L2.68074 140.431L1.24219 132.511L3.04038 132.183L4.05391 137.878H4.08661Z" fill="white"/>
<path d="M14.3201 120.729L8.95825 124.656L9.08902 126.26L14.7125 125.867L14.8759 128.125L0.850015 129.14L0.490376 124.198C0.359598 122.594 0.686543 121.351 1.40582 120.467C2.1251 119.584 3.13863 119.093 4.41371 118.994C5.52533 118.896 6.44077 119.158 7.19274 119.714C7.94472 120.271 8.46783 121.154 8.72938 122.3L14.1567 118.209L14.3528 120.762L14.3201 120.729ZM7.48699 126.358L7.29083 123.838C7.16005 122.005 6.2773 121.154 4.67527 121.253C3.8906 121.318 3.3348 121.58 2.90977 122.038C2.51743 122.529 2.35396 123.216 2.41935 124.165L2.61552 126.685L7.48699 126.325V126.358Z" fill="white"/>
<path d="M0.130554 114.511L11.966 111.009L0.522888 106.395L0.653666 103.907L14.4834 109.667L14.3527 112.58L0.0324707 116.965L0.163249 114.478L0.130554 114.511Z" fill="white"/>
<path d="M3.26939 99.0639L7.48697 99.7512L8.30434 94.6131L10.0371 94.9076L9.21978 100.046L13.5355 100.733L14.4509 95.0058L16.2818 95.3003L14.974 103.253L1.07886 100.995L2.38664 93.0422L4.18483 93.3367L3.26939 99.0639Z" fill="white"/>
<path d="M16.478 81.8169C17.328 82.6678 17.8838 83.7151 18.1454 84.926C18.4069 86.1696 18.3088 87.5114 17.8838 88.9841L16.576 93.5004L3.04053 89.6059L4.34831 85.0896C4.77333 83.6169 5.42722 82.406 6.27728 81.4896C7.12734 80.5733 8.14087 79.9842 9.31787 79.7224C10.4949 79.4606 11.77 79.526 13.1104 79.9188C14.4836 80.3115 15.5952 80.9333 16.4453 81.7842L16.478 81.8169ZM15.6933 84.5005C15.1048 83.3878 14.0259 82.6024 12.5219 82.1769C11.018 81.7515 9.7102 81.8496 8.59859 82.4714C7.51967 83.0933 6.735 84.2387 6.27728 85.8423L5.65609 88.0023L15.2683 90.7513L15.8895 88.5913C16.3472 86.955 16.2818 85.6132 15.6933 84.5005Z" fill="white"/>
<path d="M20.957 64.8644C21.7744 64.668 22.5591 64.7662 23.311 65.1262C24.3573 65.6498 25.0112 66.4026 25.3054 67.3844C25.567 68.3989 25.4035 69.5771 24.7496 70.9189L22.2975 75.9588L9.61206 69.8061L11.9988 64.8317C12.62 63.5553 13.3719 62.7372 14.2547 62.3117C15.1374 61.919 16.0856 61.9517 17.0991 62.4426C17.9165 62.8353 18.4396 63.359 18.7338 64.0135C19.0281 64.668 19.0935 65.388 18.93 66.1407C19.4531 65.4535 20.107 64.9953 20.9243 64.7989L20.957 64.8644ZM16.0856 70.428L17.328 67.908C17.6876 67.188 17.7857 66.5662 17.6222 66.0098C17.4587 65.4535 17.0991 65.0608 16.5106 64.7662C15.9221 64.4717 15.3663 64.439 14.8432 64.668C14.3201 64.8971 13.895 65.388 13.5027 66.1407L12.3257 68.5953L16.1183 70.428H16.0856ZM23.213 68.4643C23.0822 67.8753 22.6898 67.4171 22.036 67.1226C21.4148 66.828 20.7936 66.7953 20.2378 67.0571C19.682 67.3189 19.1915 67.8425 18.8319 68.5953L17.5895 71.1807L21.6109 73.1443L22.8533 70.5589C23.2457 69.7734 23.3437 69.0862 23.213 68.4971V68.4643Z" fill="white"/>
<path d="M21.4802 48.7301L26.5152 57.5009L30.8308 60.2499L29.5885 62.1808L25.2728 59.4318L15.2029 58.5809L16.6087 56.3554L23.8342 57.1409L20.0744 50.8901L21.4802 48.6974V48.7301Z" fill="white"/>
<path d="M36.7484 31.4832L46.851 40.9739L45.2817 42.643L37.6965 35.5085L42.5353 45.5557L41.1622 46.9956L30.8307 42.8066L38.4158 49.941L36.8465 51.6101L26.7439 42.1194L28.6402 40.123L39.8544 44.3448L34.8848 33.4795L36.7811 31.4832H36.7484Z" fill="white"/>
<path d="M42.6662 28.6359L45.3798 31.9413L49.4012 28.6687L50.5128 30.0432L46.4914 33.3159L49.2704 36.6867L53.7496 33.0213L54.9266 34.4613L48.6819 39.5667L39.7563 28.6687L46.001 23.5633L47.178 24.9705L42.6989 28.6359H42.6662Z" fill="white"/>
<path d="M60.9096 23.2033C61.3019 21.3051 61.1712 19.8651 60.55 18.8179C60.1903 18.1961 59.7326 17.8034 59.2095 17.607C58.6864 17.4106 58.0979 17.5415 57.4113 17.9343C56.7247 18.3597 56.3324 18.8833 56.2343 19.5706C56.1362 20.2579 56.3324 21.0106 56.7901 21.8615L54.8938 23.0069C54.1419 21.5669 53.9457 20.2579 54.2726 19.0797C54.5996 17.9015 55.3842 16.9197 56.5612 16.1997C57.7382 15.4798 58.8499 15.2507 59.8961 15.4798C60.9423 15.7088 61.7924 16.3634 62.4463 17.4434C62.9694 18.327 63.2309 19.3742 63.2309 20.6179C63.2309 21.8615 63.0348 23.0724 62.6751 24.3487C62.2828 25.5923 61.8251 26.7705 61.2692 27.8505L66.9908 24.4142L67.9389 26.0178L59.5691 31.0577L58.7191 29.6177C59.798 27.2287 60.55 25.1014 60.9423 23.236L60.9096 23.2033Z" fill="white"/>
<path d="M66.3369 18.8834C65.4215 16.8543 65.0618 15.0871 65.258 13.6144C65.4541 12.1416 66.4023 10.9962 68.1024 10.2435C69.8025 9.45805 71.2738 9.49078 72.5162 10.3417C73.7585 11.1598 74.8375 12.5998 75.7856 14.6289C76.7011 16.6579 77.0607 18.4252 76.8645 19.9306C76.6684 21.436 75.7202 22.5488 74.0201 23.3342C72.32 24.1196 70.8487 24.0869 69.6064 23.236C68.364 22.3851 67.2523 20.9779 66.3369 18.9161V18.8834ZM73.6932 15.5452C73.0393 14.1053 72.3527 13.058 71.6334 12.4362C70.9141 11.8144 70.0314 11.7489 68.9852 12.2071C67.9389 12.698 67.3831 13.3853 67.3831 14.3343C67.3831 15.2834 67.7101 16.4943 68.364 17.9343C69.0505 19.407 69.7371 20.4542 70.4564 21.0761C71.1757 21.6979 72.0584 21.7633 73.1047 21.3051C74.1509 20.847 74.674 20.127 74.674 19.1779C74.674 18.2288 74.347 17.0179 73.6605 15.5452H73.6932Z" fill="white"/>
<path d="M83.142 13.1561C83.9267 11.4216 84.1555 9.94891 83.7959 8.80347C83.567 8.11621 83.2401 7.62531 82.7497 7.33076C82.2919 7.03622 81.6707 7.0035 80.9188 7.23258C80.1341 7.4944 79.6437 7.91985 79.4148 8.54165C79.186 9.16346 79.186 9.94891 79.4148 10.898L77.3224 11.5852C76.93 10.0144 76.9954 8.70529 77.6166 7.62531C78.2378 6.54532 79.186 5.79261 80.4937 5.36716C81.8015 4.94171 82.9458 4.97444 83.894 5.39989C84.8421 5.85806 85.5287 6.67623 85.921 7.88712C86.248 8.86892 86.248 9.94891 85.9864 11.1271C85.7249 12.338 85.2344 13.4834 84.5806 14.6288C83.9267 15.7743 83.2074 16.7888 82.4227 17.7379L88.7654 15.6761L89.3212 17.4433L80.036 20.4542L79.5129 18.8506C81.1149 16.7888 82.2919 14.8906 83.1093 13.1234L83.142 13.1561Z" fill="white"/>
<path d="M94.3563 10.2435C95.3371 8.60715 95.6967 7.16718 95.4679 5.98901C95.3371 5.26902 95.0429 4.7454 94.6178 4.41813C94.1928 4.09086 93.5716 3.99268 92.8196 4.12359C92.035 4.28722 91.4792 4.67994 91.1849 5.26902C90.8907 5.8581 90.8253 6.64355 90.956 7.62535L88.7982 8.08352C88.5693 6.47991 88.7982 5.17084 89.5175 4.15631C90.2368 3.14178 91.2503 2.48725 92.6235 2.19271C93.9639 1.93089 95.0756 2.0618 95.991 2.61816C96.9064 3.17451 97.4949 4.05813 97.7565 5.33448C97.9527 6.34901 97.8546 7.42899 97.4622 8.57443C97.0699 9.71986 96.4814 10.8326 95.6967 11.9126C94.9121 12.9925 94.0947 13.9416 93.212 14.7598L99.7509 13.418L100.143 15.2507L90.5637 17.247L90.2368 15.6107C92.035 13.7125 93.4408 11.9453 94.4217 10.3089L94.3563 10.2435Z" fill="white"/>
</g>
<defs>
<clipPath id="clip0_446_6924">
<rect width="232" height="232" fill="white"/>
</clipPath>
</defs>
</svg>
